<?xml version="1.0" encoding="UTF-8" standalone="no" ?>
<!DOCTYPE svg PUBLIC "-//W3C//DTD SVG 1.1//EN" "http://www.w3.org/Graphics/SVG/1.1/DTD/svg11.dtd">
<svg xmlns="http://www.w3.org/2000/svg" xmlns:xlink="http://www.w3.org/1999/xlink" version="1.1" width="1280" height="1024" viewBox="0 0 1280 1024" xml:space="preserve">
<desc>Created with Fabric.js 4.4.0</desc>
<defs>
</defs>
<g transform="matrix(1 0 0 1 640 512)" id="background-logo"  >
<rect style="stroke: none; stroke-width: 0; stroke-dasharray: none; stroke-linecap: butt; stroke-dashoffset: 0; stroke-linejoin: miter; stroke-miterlimit: 4; fill: rgb(255,255,255); fill-opacity: 0; fill-rule: nonzero; opacity: 1;"  paint-order="stroke"  x="-640" y="-512" rx="0" ry="0" width="1280" height="1024" />
</g>
<g transform="matrix(1.9174664107485604 0 0 1.9174664107485604 639.715256238004 747.031206839418)" id="text-logo-path-group"  >
<g style=""  paint-order="stroke"   >
		<g transform="matrix(1 0 0 1 0 0)" id="text-logo-path-0"  >
<path style="stroke: none; stroke-width: 1; stroke-dasharray: none; stroke-linecap: butt; stroke-dashoffset: 0; stroke-linejoin: miter; stroke-miterlimit: 4; fill: rgb(223,104,24); fill-rule: nonzero; opacity: 1;"  paint-order="stroke"  transform=" translate(-262.78, 22.54)" d="M 30.95 -45.14 L 21.25 -16.1 L 11.68 -45.14 L 0.13 -45.14 L 15.11 0 L 27.52 0 L 42.5 -45.14 Z M 46.66 -45.14 L 46.66 0 L 57.68 0 L 57.68 -45.14 Z M 76.89 -10.36 L 76.89 -45.14 L 65.87 -45.14 L 65.87 0 L 94.38 0 L 94.38 -10.36 Z M 110.22 -10.36 L 110.22 -45.14 L 99.2 -45.14 L 99.2 0 L 127.71 0 L 127.71 -10.36 Z M 163.68 0 L 175.43 0 L 158.86 -45.14 L 147.11 -45.14 L 130.61 0 L 142.36 0 L 145.27 -7.85 L 160.78 -7.85 Z M 149.03 -18.28 L 153.05 -29.17 L 156.95 -18.28 Z M 207.17 -10.36 L 207.17 -17.89 L 222.88 -17.89 L 222.88 -28.25 L 207.17 -28.25 L 207.17 -34.72 L 224.47 -34.72 L 224.47 -45.14 L 196.15 -45.14 L 196.15 0 L 224.8 0 L 224.8 -10.36 Z M 246.64 -14.52 L 254.76 0 L 267.3 0 L 257.86 -17.03 C 262.22 -19.87 264.73 -24.68 264.73 -29.83 C 264.73 -38.35 257.93 -45.14 249.48 -45.14 L 230.34 -45.14 L 230.34 0 L 241.36 0 L 241.36 -14.52 Z M 241.36 -24.95 L 241.36 -34.72 L 249.48 -34.72 C 252.25 -34.72 254.36 -32.6 254.36 -29.83 C 254.36 -27.19 252.12 -24.95 249.48 -24.95 Z M 298.06 -45.14 L 298.06 -22.18 L 283.4 -45.14 L 272.38 -45.14 L 272.38 0 L 283.4 0 L 283.4 -25.81 L 299.9 0 L 309.08 0 L 309.08 -45.14 Z M 328.22 -10.36 L 328.22 -17.89 L 343.93 -17.89 L 343.93 -28.25 L 328.22 -28.25 L 328.22 -34.72 L 345.51 -34.72 L 345.51 -45.14 L 317.2 -45.14 L 317.2 0 L 345.84 0 L 345.84 -10.36 Z M 366.23 0.92 C 374.62 0.92 382.73 -3.76 382.73 -12.8 C 382.73 -21.71 375.74 -25.41 368.15 -27.72 C 366.1 -28.38 364.58 -28.97 363.59 -29.44 C 362.21 -30.1 361.22 -30.82 361.22 -32.47 C 361.22 -34.39 363.66 -35.11 365.18 -35.11 C 368.74 -35.11 370.52 -33.53 372.04 -30.43 L 381.41 -35.9 C 378.18 -42.57 372.57 -46 365.18 -46 C 357.13 -46 350.26 -40.79 350.26 -32.47 C 350.26 -23.96 356.33 -20.59 363.66 -18.41 C 365.97 -17.75 367.62 -17.16 368.74 -16.7 C 370.26 -16.1 371.78 -15.31 371.78 -13.46 C 371.78 -11.02 368.48 -9.83 366.5 -9.83 C 362.21 -9.83 359.24 -11.48 357.59 -15.58 L 348.35 -10.16 C 351.32 -2.57 358.31 0.92 366.23 0.92 Z M 417.19 -34.72 L 417.19 -45.14 L 383.46 -45.14 L 383.46 -34.72 L 394.88 -34.72 L 394.88 0 L 405.83 0 L 405.83 -34.72 Z M 421.87 -45.14 L 421.87 0 L 432.89 0 L 432.89 -45.14 Z M 466.75 -45.14 L 466.75 -22.18 L 452.1 -45.14 L 441.08 -45.14 L 441.08 0 L 452.1 0 L 452.1 -25.81 L 468.6 0 L 477.77 0 L 477.77 -45.14 Z M 513.68 0 L 525.43 0 L 508.86 -45.14 L 497.11 -45.14 L 480.61 0 L 492.36 0 L 495.26 -7.85 L 510.77 -7.85 Z M 499.03 -18.28 L 503.05 -29.17 L 506.95 -18.28 Z" stroke-linecap="round" />
</g>
</g>
</g>
<g transform="matrix(1.9174664107485604 0 0 1.9174664107485604 787.1951273606181 846.9741515661397)" id="tagline-5e552f5b-8a01-454e-b94f-99a89bdfa82b-logo-path-group"  >
<g style=""  paint-order="stroke"   >
		<g transform="matrix(1 0 0 1 0 0)" id="tagline-5e552f5b-8a01-454e-b94f-99a89bdfa82b-logo-path-0"  >
<path style="stroke: none; stroke-width: 1; stroke-dasharray: none; stroke-linecap: butt; stroke-dashoffset: 0; stroke-linejoin: miter; stroke-miterlimit: 4; fill: rgb(12,116,60); fill-rule: nonzero; opacity: 1;"  paint-order="stroke"  transform=" translate(-181.855, 14.98)" d="M 23.43 -6.03 L 23.43 0 L 2.79 0 L 2.79 -30.11 L 23.43 -30.11 L 23.43 -24.08 L 8.82 -24.08 L 8.82 -18.06 L 18.71 -18.06 L 18.71 -12.03 L 8.82 -12.03 L 8.82 -6.03 L 23.43 -6.03 Z M 32.77 -12.85 L 32.77 0 L 27.04 0 L 27.04 -22.49 L 28.43 -22.49 L 30.32 -20.3 Q 31.7 -21.56 33.46 -22.25 Q 35.21 -22.93 37.12 -22.93 L 37.12 -22.93 Q 39.18 -22.93 41.01 -22.14 Q 42.83 -21.35 44.2 -19.98 Q 45.56 -18.6 46.35 -16.77 Q 47.14 -14.93 47.14 -12.85 L 47.14 -12.85 L 47.14 0 L 41.4 0 L 41.4 -12.85 Q 41.4 -13.73 41.07 -14.52 Q 40.73 -15.31 40.14 -15.89 Q 39.56 -16.48 38.78 -16.82 Q 38 -17.15 37.12 -17.15 L 37.12 -17.15 Q 36.22 -17.15 35.42 -16.82 Q 34.62 -16.48 34.03 -15.89 Q 33.45 -15.31 33.11 -14.52 Q 32.77 -13.73 32.77 -12.85 L 32.77 -12.85 Z M 70.86 -18.01 L 70.86 -18.01 L 66.66 -13.79 Q 66.35 -14.68 65.8 -15.38 Q 65.26 -16.08 64.57 -16.57 Q 63.89 -17.05 63.09 -17.3 Q 62.3 -17.55 61.46 -17.55 L 61.46 -17.55 Q 60.28 -17.55 59.24 -17.07 Q 58.2 -16.59 57.43 -15.72 Q 56.67 -14.84 56.23 -13.65 Q 55.79 -12.45 55.79 -11 L 55.79 -11 Q 55.79 -9.83 56.23 -8.8 Q 56.67 -7.77 57.43 -6.99 Q 58.2 -6.21 59.24 -5.77 Q 60.28 -5.33 61.46 -5.33 L 61.46 -5.33 Q 62.3 -5.33 63.07 -5.56 Q 63.85 -5.79 64.53 -6.23 Q 65.21 -6.66 65.75 -7.28 Q 66.28 -7.89 66.62 -8.65 L 66.62 -8.65 L 70.82 -4.43 Q 70.02 -3.3 68.98 -2.39 Q 67.94 -1.49 66.74 -0.86 Q 65.53 -0.23 64.2 0.09 Q 62.86 0.42 61.46 0.42 L 61.46 0.42 Q 59.08 0.42 56.99 -0.47 Q 54.9 -1.36 53.34 -2.92 Q 51.78 -4.47 50.87 -6.55 Q 49.97 -8.63 49.97 -11 L 49.97 -11 Q 49.97 -13.58 50.87 -15.83 Q 51.78 -18.08 53.34 -19.75 Q 54.9 -21.42 56.99 -22.38 Q 59.08 -23.35 61.46 -23.35 L 61.46 -23.35 Q 62.86 -23.35 64.22 -22.99 Q 65.57 -22.63 66.8 -21.95 Q 68.03 -21.27 69.07 -20.28 Q 70.11 -19.3 70.86 -18.01 Z M 95.09 -22.44 L 95.09 0 L 93.71 0 L 91.48 -3.09 Q 90.66 -2.35 89.75 -1.71 Q 88.83 -1.07 87.83 -0.6 Q 86.82 -0.13 85.76 0.15 Q 84.7 0.42 83.61 0.42 L 83.61 0.42 Q 81.23 0.42 79.14 -0.38 Q 77.06 -1.18 75.49 -2.7 Q 73.93 -4.22 73.02 -6.42 Q 72.12 -8.63 72.12 -11.44 L 72.12 -11.44 Q 72.12 -14.07 73.02 -16.26 Q 73.93 -18.46 75.49 -20.03 Q 77.06 -21.6 79.14 -22.48 Q 81.23 -23.35 83.61 -23.35 L 83.61 -23.35 Q 84.7 -23.35 85.77 -23.07 Q 86.84 -22.8 87.85 -22.32 Q 88.86 -21.84 89.77 -21.19 Q 90.68 -20.53 91.48 -19.78 L 91.48 -19.78 L 93.71 -22.44 L 95.09 -22.44 Z M 89.32 -11.44 L 89.32 -11.44 Q 89.32 -12.62 88.87 -13.72 Q 88.41 -14.82 87.64 -15.67 Q 86.86 -16.52 85.82 -17.04 Q 84.78 -17.55 83.61 -17.55 L 83.61 -17.55 Q 82.43 -17.55 81.39 -17.15 Q 80.35 -16.75 79.59 -15.98 Q 78.82 -15.2 78.38 -14.06 Q 77.94 -12.91 77.94 -11.44 L 77.94 -11.44 Q 77.94 -9.97 78.38 -8.83 Q 78.82 -7.68 79.59 -6.91 Q 80.35 -6.13 81.39 -5.73 Q 82.43 -5.33 83.61 -5.33 L 83.61 -5.33 Q 84.78 -5.33 85.82 -5.85 Q 86.86 -6.36 87.64 -7.21 Q 88.41 -8.06 88.87 -9.16 Q 89.32 -10.27 89.32 -11.44 Z M 105.19 -12.85 L 105.19 0 L 99.46 0 L 99.46 -22.49 L 100.84 -22.49 L 102.73 -20.3 Q 104.12 -21.56 105.87 -22.25 Q 107.63 -22.93 109.54 -22.93 L 109.54 -22.93 Q 111.59 -22.93 113.42 -22.14 Q 115.25 -21.35 116.61 -19.98 Q 117.98 -18.6 118.76 -16.77 Q 119.55 -14.93 119.55 -12.85 L 119.55 -12.85 L 119.55 0 L 113.82 0 L 113.82 -12.85 Q 113.82 -13.73 113.48 -14.52 Q 113.15 -15.31 112.56 -15.89 Q 111.97 -16.48 111.2 -16.82 Q 110.42 -17.15 109.54 -17.15 L 109.54 -17.15 Q 108.63 -17.15 107.84 -16.82 Q 107.04 -16.48 106.45 -15.89 Q 105.86 -15.31 105.53 -14.52 Q 105.19 -13.73 105.19 -12.85 L 105.19 -12.85 Z M 138.95 0 L 134.61 0 Q 132.53 0 130.7 -0.79 Q 128.87 -1.57 127.5 -2.95 Q 126.12 -4.33 125.34 -6.15 Q 124.55 -7.98 124.55 -10.06 L 124.55 -10.06 L 124.55 -16.73 L 121.76 -16.73 L 121.76 -22.44 L 124.55 -22.44 L 124.55 -31.43 L 130.26 -31.43 L 130.26 -22.44 L 138.95 -22.44 L 138.95 -16.73 L 130.26 -16.73 L 130.26 -10.06 Q 130.26 -9.15 130.6 -8.37 Q 130.93 -7.58 131.52 -6.99 Q 132.11 -6.4 132.91 -6.06 Q 133.7 -5.71 134.61 -5.71 L 134.61 -5.71 L 138.95 -5.71 L 138.95 0 Z M 163.9 -11.44 L 163.9 -11.44 Q 163.9 -8.92 162.99 -6.75 Q 162.09 -4.58 160.54 -2.99 Q 158.98 -1.41 156.89 -0.49 Q 154.8 0.42 152.41 0.42 L 152.41 0.42 Q 150.04 0.42 147.95 -0.49 Q 145.86 -1.41 144.3 -2.99 Q 142.73 -4.58 141.83 -6.75 Q 140.93 -8.92 140.93 -11.44 L 140.93 -11.44 Q 140.93 -14 141.83 -16.19 Q 142.73 -18.37 144.3 -19.96 Q 145.86 -21.54 147.95 -22.44 Q 150.04 -23.35 152.41 -23.35 L 152.41 -23.35 Q 154.8 -23.35 156.89 -22.5 Q 158.98 -21.65 160.54 -20.08 Q 162.09 -18.52 162.99 -16.32 Q 163.9 -14.13 163.9 -11.44 Z M 158.12 -11.44 L 158.12 -11.44 Q 158.12 -12.83 157.67 -13.95 Q 157.22 -15.08 156.44 -15.88 Q 155.67 -16.69 154.63 -17.12 Q 153.59 -17.55 152.41 -17.55 L 152.41 -17.55 Q 151.23 -17.55 150.2 -17.12 Q 149.16 -16.69 148.39 -15.88 Q 147.62 -15.08 147.18 -13.95 Q 146.74 -12.83 146.74 -11.44 L 146.74 -11.44 Q 146.74 -10.14 147.18 -9.03 Q 147.62 -7.92 148.39 -7.1 Q 149.16 -6.28 150.2 -5.81 Q 151.23 -5.33 152.41 -5.33 L 152.41 -5.33 Q 153.59 -5.33 154.63 -5.77 Q 155.67 -6.21 156.44 -7.01 Q 157.22 -7.81 157.67 -8.94 Q 158.12 -10.08 158.12 -11.44 Z M 203.79 -30.11 L 203.79 0 L 197.34 0 L 185.73 -19.82 L 185.73 0 L 179.71 0 L 179.71 -30.11 L 186.15 -30.11 L 197.76 -10.27 L 197.76 -30.11 L 203.79 -30.11 Z M 230.2 -22.44 L 230.2 0 L 228.82 0 L 226.59 -3.09 Q 225.77 -2.35 224.86 -1.71 Q 223.94 -1.07 222.94 -0.6 Q 221.93 -0.13 220.87 0.15 Q 219.81 0.42 218.72 0.42 L 218.72 0.42 Q 216.34 0.42 214.25 -0.38 Q 212.17 -1.18 210.6 -2.7 Q 209.04 -4.22 208.13 -6.42 Q 207.23 -8.63 207.23 -11.44 L 207.23 -11.44 Q 207.23 -14.07 208.13 -16.26 Q 209.04 -18.46 210.6 -20.03 Q 212.17 -21.6 214.25 -22.48 Q 216.34 -23.35 218.72 -23.35 L 218.72 -23.35 Q 219.81 -23.35 220.88 -23.07 Q 221.95 -22.8 222.96 -22.32 Q 223.97 -21.84 224.88 -21.19 Q 225.79 -20.53 226.59 -19.78 L 226.59 -19.78 L 228.82 -22.44 L 230.2 -22.44 Z M 224.43 -11.44 L 224.43 -11.44 Q 224.43 -12.62 223.98 -13.72 Q 223.52 -14.82 222.75 -15.67 Q 221.97 -16.52 220.93 -17.04 Q 219.89 -17.55 218.72 -17.55 L 218.72 -17.55 Q 217.54 -17.55 216.5 -17.15 Q 215.46 -16.75 214.7 -15.98 Q 213.93 -15.2 213.49 -14.06 Q 213.05 -12.91 213.05 -11.44 L 213.05 -11.44 Q 213.05 -9.97 213.49 -8.83 Q 213.93 -7.68 214.7 -6.91 Q 215.46 -6.13 216.5 -5.73 Q 217.54 -5.33 218.72 -5.33 L 218.72 -5.33 Q 219.89 -5.33 220.93 -5.85 Q 221.97 -6.36 222.75 -7.21 Q 223.52 -8.06 223.98 -9.16 Q 224.43 -10.27 224.43 -11.44 Z M 250.19 0 L 245.84 0 Q 243.76 0 241.94 -0.79 Q 240.11 -1.57 238.74 -2.95 Q 237.36 -4.33 236.57 -6.15 Q 235.79 -7.98 235.79 -10.06 L 235.79 -10.06 L 235.79 -16.73 L 232.99 -16.73 L 232.99 -22.44 L 235.79 -22.44 L 235.79 -31.43 L 241.5 -31.43 L 241.5 -22.44 L 250.19 -22.44 L 250.19 -16.73 L 241.5 -16.73 L 241.5 -10.06 Q 241.5 -9.15 241.83 -8.37 Q 242.17 -7.58 242.76 -6.99 Q 243.34 -6.4 244.14 -6.06 Q 244.94 -5.71 245.84 -5.71 L 245.84 -5.71 L 250.19 -5.71 L 250.19 0 Z M 271.82 0 L 269.93 -2.62 Q 269.23 -1.99 268.45 -1.44 Q 267.66 -0.88 266.8 -0.47 Q 265.94 -0.06 265.02 0.18 Q 264.11 0.42 263.17 0.42 L 263.17 0.42 Q 261.09 0.42 259.26 -0.31 Q 257.43 -1.05 256.06 -2.4 Q 254.68 -3.76 253.9 -5.7 Q 253.11 -7.64 253.11 -10.06 L 253.11 -10.06 L 253.11 -22.49 L 258.82 -22.49 L 258.82 -10.06 Q 258.82 -8.92 259.17 -8.03 Q 259.51 -7.14 260.1 -6.53 Q 260.69 -5.92 261.47 -5.61 Q 262.26 -5.29 263.17 -5.29 L 263.17 -5.29 Q 264.05 -5.29 264.83 -5.7 Q 265.62 -6.11 266.21 -6.78 Q 266.8 -7.45 267.13 -8.3 Q 267.47 -9.15 267.47 -10.06 L 267.47 -10.06 L 267.47 -22.49 L 273.2 -22.49 L 273.2 0 L 271.82 0 Z M 283.3 -12.39 L 283.3 0 L 277.57 0 L 277.57 -22.49 L 278.95 -22.49 L 280.84 -19.82 Q 282.23 -21.08 283.99 -21.76 Q 285.76 -22.44 287.65 -22.44 L 287.65 -22.44 L 292.71 -22.44 L 292.71 -16.73 L 287.65 -16.73 Q 286.74 -16.73 285.95 -16.4 Q 285.15 -16.06 284.56 -15.47 Q 283.97 -14.89 283.64 -14.09 Q 283.3 -13.29 283.3 -12.39 L 283.3 -12.39 Z M 316.73 -22.44 L 316.73 0 L 315.34 0 L 313.11 -3.09 Q 312.3 -2.35 311.38 -1.71 Q 310.47 -1.07 309.46 -0.6 Q 308.45 -0.13 307.39 0.15 Q 306.33 0.42 305.24 0.42 L 305.24 0.42 Q 302.87 0.42 300.78 -0.38 Q 298.69 -1.18 297.13 -2.7 Q 295.56 -4.22 294.66 -6.42 Q 293.76 -8.63 293.76 -11.44 L 293.76 -11.44 Q 293.76 -14.07 294.66 -16.26 Q 295.56 -18.46 297.13 -20.03 Q 298.69 -21.6 300.78 -22.48 Q 302.87 -23.35 305.24 -23.35 L 305.24 -23.35 Q 306.33 -23.35 307.4 -23.07 Q 308.47 -22.8 309.48 -22.32 Q 310.49 -21.84 311.4 -21.19 Q 312.32 -20.53 313.11 -19.78 L 313.11 -19.78 L 315.34 -22.44 L 316.73 -22.44 Z M 310.95 -11.44 L 310.95 -11.44 Q 310.95 -12.62 310.5 -13.72 Q 310.05 -14.82 309.27 -15.67 Q 308.5 -16.52 307.46 -17.04 Q 306.42 -17.55 305.24 -17.55 L 305.24 -17.55 Q 304.07 -17.55 303.03 -17.15 Q 301.99 -16.75 301.22 -15.98 Q 300.45 -15.2 300.01 -14.06 Q 299.57 -12.91 299.57 -11.44 L 299.57 -11.44 Q 299.57 -9.97 300.01 -8.83 Q 300.45 -7.68 301.22 -6.91 Q 301.99 -6.13 303.03 -5.73 Q 304.07 -5.33 305.24 -5.33 L 305.24 -5.33 Q 306.42 -5.33 307.46 -5.85 Q 308.5 -6.36 309.27 -7.21 Q 310.05 -8.06 310.5 -9.16 Q 310.95 -10.27 310.95 -11.44 Z M 326.87 -31.43 L 326.87 0 L 321.09 0 L 321.09 -31.43 L 326.87 -31.43 Z M 338.29 -2.14 L 338.29 -2.14 Q 338.29 -1.39 338.02 -0.72 Q 337.74 -0.06 337.26 0.42 Q 336.78 0.9 336.13 1.19 Q 335.48 1.47 334.72 1.47 L 334.72 1.47 Q 333.98 1.47 333.32 1.19 Q 332.66 0.9 332.17 0.42 Q 331.68 -0.06 331.39 -0.72 Q 331.11 -1.39 331.11 -2.14 L 331.11 -2.14 Q 331.11 -2.88 331.39 -3.53 Q 331.68 -4.18 332.17 -4.66 Q 332.66 -5.14 333.32 -5.43 Q 333.98 -5.71 334.72 -5.71 L 334.72 -5.71 Q 335.48 -5.71 336.13 -5.43 Q 336.78 -5.14 337.26 -4.66 Q 337.74 -4.18 338.02 -3.53 Q 338.29 -2.88 338.29 -2.14 Z M 349.61 -2.14 L 349.61 -2.14 Q 349.61 -1.39 349.33 -0.72 Q 349.06 -0.06 348.58 0.42 Q 348.09 0.9 347.44 1.19 Q 346.79 1.47 346.04 1.47 L 346.04 1.47 Q 345.3 1.47 344.64 1.19 Q 343.98 0.9 343.49 0.42 Q 342.99 -0.06 342.71 -0.72 Q 342.43 -1.39 342.43 -2.14 L 342.43 -2.14 Q 342.43 -2.88 342.71 -3.53 Q 342.99 -4.18 343.49 -4.66 Q 343.98 -5.14 344.64 -5.43 Q 345.3 -5.71 346.04 -5.71 L 346.04 -5.71 Q 346.79 -5.71 347.44 -5.43 Q 348.09 -5.14 348.58 -4.66 Q 349.06 -4.18 349.33 -3.53 Q 349.61 -2.88 349.61 -2.14 Z M 360.92 -2.14 L 360.92 -2.14 Q 360.92 -1.39 360.65 -0.72 Q 360.38 -0.06 359.89 0.42 Q 359.41 0.9 358.76 1.19 Q 358.11 1.47 357.35 1.47 L 357.35 1.47 Q 356.62 1.47 355.96 1.19 Q 355.3 0.9 354.8 0.42 Q 354.31 -0.06 354.03 -0.72 Q 353.74 -1.39 353.74 -2.14 L 353.74 -2.14 Q 353.74 -2.88 354.03 -3.53 Q 354.31 -4.18 354.8 -4.66 Q 355.3 -5.14 355.96 -5.43 Q 356.62 -5.71 357.35 -5.71 L 357.35 -5.71 Q 358.11 -5.71 358.76 -5.43 Q 359.41 -5.14 359.89 -4.66 Q 360.38 -4.18 360.65 -3.53 Q 360.92 -2.88 360.92 -2.14 Z" stroke-linecap="round" />
</g>
</g>
</g>
<g transform="matrix(2.0848745270051223 0 0 2.0848745270051223 640 383.09661939878765)" id="logo-logo"  >
<g style=""  paint-order="stroke"   >
		<g transform="matrix(2.32 0 0 -2.32 95.54942 -0.31999999999996476)"  >
<path style="stroke: none; stroke-width: 1; stroke-dasharray: none; stroke-linecap: butt; stroke-dashoffset: 0; stroke-linejoin: miter; stroke-miterlimit: 4; fill: rgb(247,160,24); fill-rule: nonzero; opacity: 1;"  paint-order="stroke"  transform=" translate(-0.7669999999999995, -3.4810000000000034)" d="M 0 0 C -0.426 0.198 -0.854 0.384 -1.285 0.558 L -3.97 1.644 C -4.181 2.274 -4.422000000000001 2.887 -4.691 3.481 C -4.422 4.075 -4.181 4.688 -3.9699999999999998 5.319 L -1.2899999999999996 6.401 C -0.857 6.576 -0.428 6.763 0 6.962 L 3.918 3.481 Z M 0.875 16.216 C -0.718 15.007000000000001 -2.389 14.046000000000001 -4.098 13.356000000000002 L -6.224 12.497000000000002 L -6.292 14.790000000000003 C -6.338 16.345000000000002 -6.749 17.76 -7.516 19.011000000000003 L -7.549 18.442000000000004 C -7.603000000000001 17.551000000000002 -8.287 16.846000000000004 -9.176 16.765000000000004 C -10.032 16.688000000000002 -10.86 16.549000000000003 -11.645 16.352000000000004 C -10.574 14.459000000000003 -10.195 12.254000000000005 -10.548 9.929000000000004 C -10.95 7.278000000000004 -12.002 5.111000000000004 -13.677 3.4810000000000034 C -12.001999999999999 1.8500000000000034 -10.95 -0.31599999999999673 -10.548 -2.966999999999997 C -10.195 -5.2929999999999975 -10.574 -7.498999999999997 -11.646 -9.389999999999997 C -10.860000000000001 -9.587999999999997 -10.033000000000001 -9.726999999999997 -9.176 -9.803999999999997 C -8.287 -9.883999999999997 -7.603 -10.588999999999997 -7.549 -11.478999999999997 L -7.516 -12.048999999999998 C -6.749 -10.797999999999998 -6.338 -9.382999999999997 -6.292 -7.827999999999998 L -6.224 -5.5349999999999975 L -4.098000000000001 -6.394999999999998 C -2.391000000000001 -7.0829999999999975 -0.7190000000000007 -8.044999999999998 0.8749999999999991 -9.254999999999997 L 15.211 3.481 Z" stroke-linecap="round" />
</g>
		<g transform="matrix(2.32 0 0 -2.32 -95.55058 -0.31999999999996476)"  >
<path style="stroke: none; stroke-width: 1; stroke-dasharray: none; stroke-linecap: butt; stroke-dashoffset: 0; stroke-linejoin: miter; stroke-miterlimit: 4; fill: rgb(247,160,24); fill-rule: nonzero; opacity: 1;"  paint-order="stroke"  transform=" translate(4.7364999999999995, -1.8375000000000004)" d="M 0 0 C 0 0 -3.542 -1.445 -3.969 -1.644 L -7.8870000000000005 1.837 L -3.9690000000000003 5.318 C -3.542 5.119 0 3.676 0 3.676 C 0.211 3.045 0.452 2.432 0.722 1.837 C 0.453 1.243 0.211 0.63 0 0 M 6.579 -4.611 C 6.98 -1.961 8.032 0.206 9.707 1.837 C 8.032 3.469 6.98 5.635 6.579 8.286 C 6.226 10.612 6.605 12.817 7.676 14.708 C 6.891 14.906 6.063 15.044 5.206 15.122 C 4.332 15.201 3.633 15.92 3.58 16.796 L 3.546 17.368 C 2.78 16.116 2.369 14.701 2.323 13.146 L 2.255 10.854 L 0.129 11.712 C -1.579 12.401 -3.25 13.363 -4.845000000000001 14.573 L -19.18 1.837 L -4.845 -10.898 C -3.25 -9.687999999999999 -1.5789999999999997 -8.727 0.12900000000000045 -8.038 L 2.2550000000000003 -7.178 L 2.3230000000000004 -9.472 C 2.369 -11.026 2.7790000000000004 -12.440999999999999 3.5460000000000003 -13.693 L 3.58 -13.125 C 3.633 -12.247 4.333 -11.526 5.2059999999999995 -11.448 C 6.063999999999999 -11.370000000000001 6.8919999999999995 -11.231 7.676 -11.034 C 6.605 -9.143 6.226 -6.937 6.579000000000001 -4.611000000000001" stroke-linecap="round" />
</g>
		<g transform="matrix(2.32 0 0 -2.32 36.699419999999975 38.28000000000003)"  >
<path style="stroke: none; stroke-width: 1; stroke-dasharray: none; stroke-linecap: butt; stroke-dashoffset: 0; stroke-linejoin: miter; stroke-miterlimit: 4; fill: rgb(9,114,57); fill-rule: nonzero; opacity: 1;"  paint-order="stroke"  transform=" translate(3.4819999999999993, -3.4810000000000016)" d="M 0 0 L 2.466 -0.557 C 3.188 -0.7200000000000001 3.9080000000000004 -0.803 4.604 -0.803 C 6.553 -0.803 8.435 -0.17000000000000004 10.353 1.1309999999999998 L 10.22 3.376 C 8.729 3.602 7.324 3.993 6.038 4.539 L 3.927 5.435 L 5.499 7.104 C 6.952 8.646 7.519 10.552 7.1819999999999995 12.769 C 6.890999999999999 14.683 6.194999999999999 16.176000000000002 5.061 17.315 L -0.7140000000000004 12.186000000000002 C -1.0240000000000005 11.910000000000002 -1.4260000000000004 11.757000000000001 -1.8440000000000003 11.757000000000001 L -2.4060000000000006 11.757000000000001 L -2.9110000000000005 12.134000000000002 C -3.0170000000000003 12.221000000000002 -3.1190000000000007 12.303000000000003 -3.2210000000000005 12.380000000000003 C -3.648 11.467 -4.313 10.674 -5.202 10.019 C -6.297 9.214 -7.447 8.747 -8.629 8.626 C -8.748 7.445 -9.215 6.295 -10.02 5.202 C -10.675 4.313 -11.467 3.648 -12.382 3.22 C -12.308 3.124 -12.231 3.0290000000000004 -12.152 2.934 C -11.611999999999998 2.282 -11.625 1.35 -12.183 0.718 L -17.317 -5.062 C -16.176000000000002 -6.197 -14.684000000000001 -6.893000000000001 -12.771 -7.183 C -10.565000000000001 -7.519 -8.642000000000001 -6.95 -7.104000000000001 -5.5 L -5.436000000000001 -3.927 L -4.539000000000001 -6.039 C -3.9920000000000004 -7.327 -3.6030000000000006 -8.732 -3.3770000000000007 -10.219999999999999 L -1.1320000000000006 -10.352999999999998 C 0.6169999999999995 -7.768999999999998 1.1689999999999996 -5.186999999999998 0.5569999999999995 -2.4659999999999984 z" stroke-linecap="round" />
</g>
		<g transform="matrix(2.32 0 0 -2.32 -0.0005800000000135697 95.86000000000001)"  >
<path style="stroke: none; stroke-width: 1; stroke-dasharray: none; stroke-linecap: butt; stroke-dashoffset: 0; stroke-linejoin: miter; stroke-miterlimit: 4; fill: rgb(223,104,24); fill-rule: nonzero; opacity: 1;"  paint-order="stroke"  transform=" translate(0, -3.1515000000000004)" d="M 0 0 L -3.481 3.919 C -3.282 4.345 -1.8379999999999999 7.888 -1.8379999999999999 7.888 C -1.208 8.099 -0.595 8.34 0 8.61 C 0.595 8.34 1.208 8.099 1.839 7.888 C 1.839 7.888 3.282 4.346 3.48 3.9179999999999997 z M 15.531 11.434 L 14.961 11.468 C 14.068 11.521 13.364 12.206 13.284 13.094 C 13.207 13.949 13.068000000000001 14.774999999999999 12.872 15.559 C 10.99 14.485 8.802 14.11 6.448 14.466 C 3.797 14.868 1.631 15.92 0 17.595 C -1.632 15.92 -3.798 14.868 -6.449 14.466 C -8.8 14.107999999999999 -10.99 14.484 -12.872 15.559 C -13.068999999999999 14.774 -13.208 13.947999999999999 -13.285 13.094 C -13.364 12.206 -14.068 11.521999999999998 -14.959 11.468 L -15.530999999999999 11.435 C -14.278999999999998 10.667 -12.863999999999999 10.257000000000001 -11.308999999999997 10.211 L -9.015999999999998 10.143 L -9.874999999999998 8.016000000000002 C -10.563999999999998 6.309000000000002 -11.525999999999998 4.638000000000002 -12.734999999999998 3.043000000000002 L 0 -11.292 L 12.735 3.043 C 11.524 4.639 10.562999999999999 6.311 9.875 8.016 L 9.017 10.143 L 11.309999999999999 10.211 C 12.863999999999999 10.257 14.278999999999998 10.667 15.530999999999999 11.434000000000001" stroke-linecap="round" />
</g>
		<g transform="matrix(2.32 0 0 -2.32 -38.600580000000036 38.28000000000006)"  >
<path style="stroke: none; stroke-width: 1; stroke-dasharray: none; stroke-linecap: butt; stroke-dashoffset: 0; stroke-linejoin: miter; stroke-miterlimit: 4; fill: rgb(165,126,13); fill-rule: nonzero; opacity: 1;"  paint-order="stroke"  transform=" translate(1.9535, -7.408499999999998)" d="M 0 0 L 1.669 -1.573 C 3.209 -3.025 5.132 -3.596 7.333 -3.2560000000000002 C 9.248000000000001 -2.966 10.74 -2.2710000000000004 11.881 -1.1350000000000002 L 6.75 4.64 C 6.187 5.278 6.175 6.213 6.719 6.863 C 6.797 6.957 6.873 7.051 6.946 7.147 C 6.031 7.575 5.239 8.24 4.584 9.129 C 3.78 10.22 3.313 11.37 3.192 12.553 C 2.011 12.673 0.86 13.14 -0.233 13.945 C -1.122 14.601 -1.787 15.393 -2.215 16.307 C -2.311 16.234 -2.406 16.158 -2.5 16.079 L -2.935 15.717 L -3.566 15.684000000000001 L -3.569 15.684000000000001 C -4.012 15.684000000000001 -4.412 15.837000000000002 -4.723 16.113 L -10.497 21.243 C -11.632 20.102999999999998 -12.327 18.61 -12.618 16.695999999999998 C -12.954 14.478999999999997 -12.388 12.572 -10.935 11.030999999999999 L -9.362 9.362 L -11.473 8.465 C -12.76 7.919 -14.166 7.528 -15.655 7.303 L -15.788 5.057 C -13.185 3.2920000000000007 -10.652000000000001 2.7500000000000004 -7.901000000000001 3.37 L -5.436000000000001 3.927 L -5.992000000000001 1.4609999999999999 C -6.605 -1.2590000000000003 -6.053000000000001 -3.842 -4.304000000000001 -6.426 L -2.059000000000001 -6.293 C -1.833000000000001 -4.803 -1.442000000000001 -3.398 -0.896000000000001 -2.112 z" stroke-linecap="round" />
</g>
		<g transform="matrix(2.32 0 0 -2.32 -0.0005800000000135697 -0.31999999999996476)"  >
<path style="stroke: none; stroke-width: 1; stroke-dasharray: none; stroke-linecap: butt; stroke-dashoffset: 0; stroke-linejoin: miter; stroke-miterlimit: 4; fill: rgb(196,155,57); fill-rule: nonzero; opacity: 1;"  paint-order="stroke"  transform=" translate(17.767999999999997, 4.318000000000001)" d="M 0 0 C -0.562 -0.369 -1.144 -0.676 -1.732 -0.914 L -3.859 -1.774 L -3.928 0.52 C -3.955 1.452 -4.361 2.194 -5.167 2.788 C -6.14 3.506 -7.039 3.731 -8.035 3.505 L -10.501000000000001 2.9499999999999997 L -9.944 5.414999999999999 C -9.718 6.417999999999999 -9.939 7.302 -10.662 8.282 C -11.257000000000001 9.09 -11.999 9.495000000000001 -12.931000000000001 9.522 L -15.224 9.591000000000001 L -14.364 11.718 C -14.126000000000001 12.306 -13.819 12.887 -13.450000000000001 13.45 L -17.295 17.778 L -17.767000000000003 17.029999999999998 L -18.240000000000002 17.778 L -22.085 13.450999999999999 C -21.717000000000002 12.889 -21.41 12.307999999999998 -21.171 11.717999999999998 L -20.311 9.590999999999998 L -22.605 9.521999999999997 C -23.537 9.495 -24.279 9.09 -24.874 8.283 C -25.596 7.302 -25.817 6.417 -25.591 5.415 L -25.036 2.95 L -27.5 3.505 C -28.506 3.733 -29.384 3.514 -30.369 2.788 C -31.175 2.194 -31.581 1.4519999999999997 -31.608 0.5189999999999997 L -31.676000000000002 -1.7740000000000005 L -33.803000000000004 -0.9140000000000005 C -34.39300000000001 -0.6760000000000005 -34.974000000000004 -0.36900000000000044 -35.536 -4.440892098500626e-16 L -39.863 -3.8450000000000006 L -39.116 -4.317 L -39.864 -4.79 L -35.535999999999994 -8.635 C -34.974 -8.266 -34.392999999999994 -7.959 -33.803 -7.721 L -31.676 -6.861 L -31.607999999999997 -9.155 C -31.580999999999996 -10.087 -31.174999999999997 -10.828999999999999 -30.368 -11.424 C -29.384999999999998 -12.148 -28.511 -12.369 -27.500999999999998 -12.141 L -25.035999999999998 -11.585 L -25.590999999999998 -14.05 C -25.816999999999997 -15.053 -25.595999999999997 -15.937000000000001 -24.874 -16.918 C -24.279 -17.724999999999998 -23.538 -18.13 -22.604999999999997 -18.157 L -20.311999999999998 -18.226 L -21.171 -20.352 C -21.409 -20.942 -21.716 -21.524 -22.085 -22.086 L -18.240000000000002 -26.413999999999998 L -17.767000000000003 -25.665999999999997 L -17.295 -26.413999999999998 L -13.450000000000001 -22.084999999999997 C -13.819 -21.523999999999997 -14.126000000000001 -20.941999999999997 -14.364 -20.351999999999997 L -15.224 -18.225999999999996 L -12.931000000000001 -18.156999999999996 C -11.998000000000001 -18.129999999999995 -11.256 -17.724999999999998 -10.662 -16.917999999999996 C -9.939 -15.937999999999995 -9.718 -15.052999999999995 -9.944 -14.050999999999995 L -10.501000000000001 -11.584999999999994 L -8.036000000000001 -12.140999999999995 C -7.037000000000002 -12.367999999999995 -6.141000000000002 -12.140999999999995 -5.168000000000001 -11.423999999999994 C -4.361000000000001 -10.829999999999995 -3.955000000000001 -10.086999999999994 -3.928000000000001 -9.153999999999995 L -3.859000000000001 -6.860999999999994 L -1.732000000000001 -7.721999999999994 C -1.143 -7.959 -0.561 -8.266 0 -8.635 L 4.328 -4.789999999999999 L 3.5810000000000004 -4.316999999999999 L 4.328 -3.8449999999999993 z" stroke-linecap="round" />
</g>
		<g transform="matrix(2.32 0 0 -2.32 36.699419999999975 -36.379999999999995)"  >
<path style="stroke: none; stroke-width: 1; stroke-dasharray: none; stroke-linecap: butt; stroke-dashoffset: 0; stroke-linejoin: miter; stroke-miterlimit: 4; fill: rgb(165,126,13); fill-rule: nonzero; opacity: 1;"  paint-order="stroke"  transform=" translate(-1.952, 7.4085)" d="M 0 0 L -1.67 1.573 C -3.206 3.021 -5.126 3.59 -7.336 3.256 C -9.249 2.966 -10.742 2.271 -11.883 1.135 L -6.752999999999999 -4.640000000000001 C -6.191999999999999 -5.275 -6.175999999999999 -6.207000000000001 -6.714999999999999 -6.856000000000001 C -6.794999999999999 -6.953000000000001 -6.872999999999999 -7.049 -6.946999999999999 -7.147000000000001 C -6.031999999999999 -7.575000000000001 -5.238999999999999 -8.240000000000002 -4.584999999999999 -9.128000000000002 C -3.779999999999999 -10.222000000000001 -3.312999999999999 -11.372000000000002 -3.193999999999999 -12.553 C -2.012999999999999 -12.673 -0.8619999999999992 -13.141 0.2320000000000011 -13.946000000000002 C 1.121000000000001 -14.602000000000002 1.7860000000000011 -15.394000000000002 2.2140000000000013 -16.307000000000002 C 2.3100000000000014 -16.234 2.405000000000001 -16.157000000000004 2.5000000000000013 -16.079 L 2.9340000000000015 -15.718 L 3.5640000000000014 -15.684 L 3.5670000000000015 -15.684 C 4.012000000000001 -15.684 4.4140000000000015 -15.838 4.727000000000001 -16.118 L 10.495000000000001 -21.243 C 11.63 -20.102999999999998 12.325000000000001 -18.61 12.616000000000001 -16.695999999999998 C 12.953000000000001 -14.478999999999997 12.387000000000002 -12.572999999999997 10.934000000000001 -11.029999999999998 L 9.360000000000001 -9.360999999999997 L 11.473 -8.464999999999996 C 12.759 -7.918999999999996 14.163 -7.528999999999996 15.654 -7.302999999999996 L 15.786999999999999 -5.056999999999997 C 13.182 -3.29 10.646 -2.749 7.9 -3.37 L 5.435 -3.927 L 5.991 -1.461 C 6.604 1.26 6.052 3.843 4.303 6.426 L 2.058 6.293 C 1.832 4.805 1.442 3.4 0.896 2.112 Z" stroke-linecap="round" />
</g>
		<g transform="matrix(2.32 0 0 -2.32 -62.64058000000006 62.960000000000036)"  >
<path style="stroke: none; stroke-width: 1; stroke-dasharray: none; stroke-linecap: butt; stroke-dashoffset: 0; stroke-linejoin: miter; stroke-miterlimit: 4; fill: rgb(200,179,124); fill-rule: nonzero; opacity: 1;"  paint-order="stroke"  transform=" translate(2.785, 2.7865)" d="M 0 0 C -2.233 -0.104 -4.44 0.4 -6.58 1.521 L -7.089 -7.094 L 1.5190000000000001 -6.5840000000000005 C 0.377 -4.428 -0.122 -2.262 0 0" stroke-linecap="round" />
</g>
		<g transform="matrix(2.32 0 0 -2.32 60.739419999999996 62.960000000000036)"  >
<path style="stroke: none; stroke-width: 1; stroke-dasharray: none; stroke-linecap: butt; stroke-dashoffset: 0; stroke-linejoin: miter; stroke-miterlimit: 4; fill: rgb(200,179,124); fill-rule: nonzero; opacity: 1;"  paint-order="stroke"  transform=" translate(-2.7860000000000005, 2.7865)" d="M 0 0 C 0.122 -2.261 -0.377 -4.428 -1.518 -6.584 L 7.09 -7.094 L 6.581 1.521 C 4.441 0.4 2.234 -0.113 0 0" stroke-linecap="round" />
</g>
		<g transform="matrix(2.32 0 0 -2.32 60.739419999999996 -60.42999999999995)"  >
<path style="stroke: none; stroke-width: 1; stroke-dasharray: none; stroke-linecap: butt; stroke-dashoffset: 0; stroke-linejoin: miter; stroke-miterlimit: 4; fill: rgb(200,179,124); fill-rule: nonzero; opacity: 1;"  paint-order="stroke"  transform=" translate(-2.7855, -2.7865)" d="M 0 0 C 0.205 0.01 0.408 0.015 0.611 0.015 C 2.6319999999999997 0.015 4.636 -0.501 6.5809999999999995 -1.5210000000000001 L 7.09 7.094 L -1.519 6.584 C -0.377 4.427 0.122 2.261 0 0" stroke-linecap="round" />
</g>
		<g transform="matrix(2.32 0 0 -2.32 -62.64058000000006 -60.42999999999995)"  >
<path style="stroke: none; stroke-width: 1; stroke-dasharray: none; stroke-linecap: butt; stroke-dashoffset: 0; stroke-linejoin: miter; stroke-miterlimit: 4; fill: rgb(200,179,124); fill-rule: nonzero; opacity: 1;"  paint-order="stroke"  transform=" translate(2.785, -2.7864999999999998)" d="M 0 0 C -0.122 2.262 0.377 4.427 1.519 6.584 L -7.089 7.093 L -6.58 -1.52 C -4.439 -0.397 -2.232 0.117 0 0" stroke-linecap="round" />
</g>
		<g transform="matrix(2.32 0 0 -2.32 -0.0005800000000135697 -95.85999999999999)"  >
<path style="stroke: none; stroke-width: 1; stroke-dasharray: none; stroke-linecap: butt; stroke-dashoffset: 0; stroke-linejoin: miter; stroke-miterlimit: 4; fill: rgb(223,104,24); fill-rule: nonzero; opacity: 1;"  paint-order="stroke"  transform=" translate(0, 3.1514999999999986)" d="M 0 0 L 3.48 -3.918 C 3.281 -4.346 1.839 -7.887 1.839 -7.887 C 1.208 -8.099 0.595 -8.34 0 -8.61 C -0.595 -8.34 -1.208 -8.099 -1.838 -7.888 C -1.838 -7.888 -3.282 -4.346 -3.481 -3.9179999999999997 z M -15.531 -11.434 L -14.961 -11.468 C -14.085 -11.517 -13.365 -12.216 -13.285 -13.093 C -13.208 -13.95 -13.069 -14.776 -12.873 -15.558 C -11.449 -14.746 -9.863999999999999 -14.334999999999999 -8.149999999999999 -14.334999999999999 C -7.595999999999998 -14.334999999999999 -7.022999999999999 -14.379 -6.447999999999999 -14.466999999999999 C -3.7979999999999987 -14.868999999999998 -1.6319999999999988 -15.919999999999998 1.7763568394002505e-15 -17.595 C 1.6310000000000018 -15.918999999999999 3.798000000000002 -14.867999999999999 6.448000000000002 -14.466999999999999 C 8.798000000000002 -14.107999999999999 10.987000000000002 -14.482999999999999 12.872000000000003 -15.557999999999998 C 13.068000000000003 -14.775999999999998 13.207000000000004 -13.949999999999998 13.284000000000004 -13.093999999999998 C 13.364000000000004 -12.215999999999998 14.087000000000005 -11.516999999999998 14.965000000000003 -11.467999999999998 L 15.531000000000004 -11.433999999999997 C 14.279000000000003 -10.666999999999998 12.864000000000004 -10.255999999999997 11.310000000000004 -10.209999999999997 L 9.017000000000003 -10.142999999999997 L 9.875000000000004 -8.015999999999998 C 10.563000000000004 -6.309999999999999 11.524000000000004 -4.637999999999998 12.735000000000003 -3.0429999999999984 L 0 11.292 L -12.736 -3.043 C -11.526 -4.6370000000000005 -10.565000000000001 -6.308 -9.875 -8.016 L -9.016 -10.143 L -11.309000000000001 -10.21 C -12.864 -10.256 -14.279000000000002 -10.667000000000002 -15.531000000000002 -11.434000000000001" stroke-linecap="round" />
</g>
		<g transform="matrix(2.32 0 0 -2.32 -38.60057999999998 -36.37999999999997)"  >
<path style="stroke: none; stroke-width: 1; stroke-dasharray: none; stroke-linecap: butt; stroke-dashoffset: 0; stroke-linejoin: miter; stroke-miterlimit: 4; fill: rgb(9,114,57); fill-rule: nonzero; opacity: 1;"  paint-order="stroke"  transform=" translate(-3.4825, 3.4815000000000005)" d="M 0 0 L -2.465 0.557 C -5.215 1.178 -7.748 0.636 -10.352 -1.13 L -10.219000000000001 -3.376 C -8.729000000000001 -3.602 -7.324000000000002 -3.992 -6.038000000000001 -4.538 L -3.926000000000001 -5.4350000000000005 L -5.4990000000000006 -7.104000000000001 C -6.952000000000001 -8.646 -7.518000000000001 -10.552000000000001 -7.182 -12.769000000000002 C -6.891 -14.683000000000002 -6.196000000000001 -16.176000000000002 -5.061 -17.316000000000003 L 0.7140000000000004 -12.186000000000003 C 1.0220000000000005 -11.909000000000004 1.4240000000000004 -11.756000000000004 1.8440000000000003 -11.756000000000004 L 2.4060000000000006 -11.756000000000004 L 2.9110000000000005 -12.133000000000004 C 3.0170000000000003 -12.221000000000004 3.1200000000000006 -12.303000000000004 3.2210000000000005 -12.380000000000004 C 3.6490000000000005 -11.466000000000005 4.314 -10.674000000000005 5.203 -10.020000000000005 C 6.296 -9.214000000000006 7.446 -8.747000000000005 8.628 -8.626000000000005 C 8.749 -7.443000000000005 9.216 -6.293000000000005 10.021 -5.201000000000005 C 10.675 -4.313000000000005 11.467 -3.648000000000005 12.382000000000001 -3.220000000000005 C 12.308000000000002 -3.124000000000005 12.231000000000002 -3.028000000000005 12.152000000000001 -2.933000000000005 C 11.610000000000001 -2.285000000000005 11.623000000000001 -1.353000000000005 12.183000000000002 -0.7180000000000053 L 17.317 5.061999999999995 C 16.177 6.197 14.684 6.892 12.77 7.183 C 10.561 7.517 8.639 6.946 7.105 5.5 L 5.436 3.928 L 4.54 6.038 C 3.994 7.325 3.603 8.73 3.377 10.22 L 1.132 10.353 C -0.617 7.769 -1.169 5.186 -0.556 2.466 Z" stroke-linecap="round" />
</g>
</g>
</g>
</svg>